<svg width="35" height="36" viewBox="0 0 35 36" fill="none" xmlns="http://www.w3.org/2000/svg">
<g id="ic:round-medical-services">
<path id="Vector" d="M29.1667 9.62501H23.3334V6.70834C23.3334 5.10417 22.0209 3.79167 20.4167 3.79167H14.5834C12.9792 3.79167 11.6667 5.10417 11.6667 6.70834V9.62501H5.83335C4.22919 9.62501 2.91669 10.9375 2.91669 12.5417V30.0417C2.91669 31.6458 4.22919 32.9583 5.83335 32.9583H29.1667C30.7709 32.9583 32.0834 31.6458 32.0834 30.0417V12.5417C32.0834 10.9375 30.7709 9.62501 29.1667 9.62501ZM14.5834 6.70834H20.4167V9.62501H14.5834V6.70834ZM21.875 22.75H18.9584V25.6667C18.9584 26.4688 18.3021 27.125 17.5 27.125C16.6979 27.125 16.0417 26.4688 16.0417 25.6667V22.75H13.125C12.3229 22.75 11.6667 22.0938 11.6667 21.2917C11.6667 20.4896 12.3229 19.8333 13.125 19.8333H16.0417V16.9167C16.0417 16.1146 16.6979 15.4583 17.5 15.4583C18.3021 15.4583 18.9584 16.1146 18.9584 16.9167V19.8333H21.875C22.6771 19.8333 23.3334 20.4896 23.3334 21.2917C23.3334 22.0938 22.6771 22.75 21.875 22.75Z" fill="#20C8A8"/>
<g id="Vector_2">
<path d="M29.1666 9.62499H23.3333V6.70832C23.3333 5.10416 22.0208 3.79166 20.4166 3.79166H14.5833C12.9791 3.79166 11.6666 5.10416 11.6666 6.70832V9.62499H5.83329C4.22913 9.62499 2.91663 10.9375 2.91663 12.5417V30.0417C2.91663 31.6458 4.22913 32.9583 5.83329 32.9583H29.1666C30.7708 32.9583 32.0833 31.6458 32.0833 30.0417V12.5417C32.0833 10.9375 30.7708 9.62499 29.1666 9.62499ZM14.5833 6.70832H20.4166V9.62499H14.5833V6.70832ZM21.875 22.75H18.9583V25.6667C18.9583 26.4687 18.302 27.125 17.5 27.125C16.6979 27.125 16.0416 26.4687 16.0416 25.6667V22.75H13.125C12.3229 22.75 11.6666 22.0937 11.6666 21.2917C11.6666 20.4896 12.3229 19.8333 13.125 19.8333H16.0416V16.9167C16.0416 16.1146 16.6979 15.4583 17.5 15.4583C18.302 15.4583 18.9583 16.1146 18.9583 16.9167V19.8333H21.875C22.677 19.8333 23.3333 20.4896 23.3333 21.2917C23.3333 22.0937 22.677 22.75 21.875 22.75Z" fill="#20C8A8"/>
<path d="M29.1666 9.62499H23.3333V6.70832C23.3333 5.10416 22.0208 3.79166 20.4166 3.79166H14.5833C12.9791 3.79166 11.6666 5.10416 11.6666 6.70832V9.62499H5.83329C4.22913 9.62499 2.91663 10.9375 2.91663 12.5417V30.0417C2.91663 31.6458 4.22913 32.9583 5.83329 32.9583H29.1666C30.7708 32.9583 32.0833 31.6458 32.0833 30.0417V12.5417C32.0833 10.9375 30.7708 9.62499 29.1666 9.62499ZM14.5833 6.70832H20.4166V9.62499H14.5833V6.70832ZM21.875 22.75H18.9583V25.6667C18.9583 26.4687 18.302 27.125 17.5 27.125C16.6979 27.125 16.0416 26.4687 16.0416 25.6667V22.75H13.125C12.3229 22.75 11.6666 22.0937 11.6666 21.2917C11.6666 20.4896 12.3229 19.8333 13.125 19.8333H16.0416V16.9167C16.0416 16.1146 16.6979 15.4583 17.5 15.4583C18.302 15.4583 18.9583 16.1146 18.9583 16.9167V19.8333H21.875C22.677 19.8333 23.3333 20.4896 23.3333 21.2917C23.3333 22.0937 22.677 22.75 21.875 22.75Z" fill="url(#paint0_linear_738_25)" fill-opacity="0.2"/>
</g>
</g>
<defs>
<linearGradient id="paint0_linear_738_25" x1="17.5" y1="3.79166" x2="17.5" y2="32.9583" gradientUnits="userSpaceOnUse">
<stop/>
<stop offset="1" stop-opacity="0"/>
</linearGradient>
</defs>
</svg>
